<mxfile modified="2020-08-19T08:50:58.688Z" host="app.diagrams.net" agent="5.0 (Windows NT 10.0; Win64; x64) AppleWebKit/537.36 (KHTML, like Gecko) Chrome/84.0.4147.125 Safari/537.36" etag="ehcdX9_5PXegV0sOgP21" version="13.6.2" type="github">
  <diagram id="7aYUHsOzWlrBTQbM_9My" name="Page-2">
    <mxGraphModel dx="1038" dy="618" grid="1" gridSize="10" guides="1" tooltips="1" connect="1" arrows="1" fold="1" page="1" pageScale="1" pageWidth="1169" pageHeight="827" math="0" shadow="0">
      <root>
        <mxCell id="5DOY-EQmABKspVYNS1KY-0" />
        <mxCell id="5DOY-EQmABKspVYNS1KY-1" parent="5DOY-EQmABKspVYNS1KY-0" />
        <mxCell id="5DOY-EQmABKspVYNS1KY-2" value="SysOps" style="text;html=1;resizable=0;points=[];autosize=1;align=left;verticalAlign=top;spacingTop=-4;fontSize=30;fontStyle=1" vertex="1" parent="5DOY-EQmABKspVYNS1KY-1">
          <mxGeometry x="56.5" y="64.5" width="130" height="40" as="geometry" />
        </mxCell>
        <mxCell id="5DOY-EQmABKspVYNS1KY-3" value="Day 2" style="text;html=1;resizable=0;points=[];autosize=1;align=left;verticalAlign=top;spacingTop=-4;fontSize=16;" vertex="1" parent="5DOY-EQmABKspVYNS1KY-1">
          <mxGeometry x="56.5" y="114.5" width="60" height="20" as="geometry" />
        </mxCell>
        <mxCell id="5DOY-EQmABKspVYNS1KY-4" value="" style="line;strokeWidth=2;html=1;fontSize=14;" vertex="1" parent="5DOY-EQmABKspVYNS1KY-1">
          <mxGeometry x="52.5" y="139.5" width="1060" height="10" as="geometry" />
        </mxCell>
      </root>
    </mxGraphModel>
  </diagram>
</mxfile>
